<svg width="35" height="16" viewBox="0 0 35 16" fill="none" xmlns="http://www.w3.org/2000/svg"><path fill-rule="evenodd" clip-rule="evenodd" d="M22.7329 3.33937L22.751 11.2099C22.751 11.2099 17.4612 12.2905 17.3158 8.86853C17.1704 5.44657 20.2347 5.52298 21.245 5.84837C21.245 4.84973 21.2786 3.30334 21.2786 3.30334L22.7329 3.33937ZM21.2336 7.02155L21.2604 10.0932L20.2328 10.1018C18.2997 10.1696 18.1858 7.04262 20.2481 7.00168C21.2699 6.98135 21.2336 7.02155 21.2336 7.02155Z" fill="#414042"/><path fill-rule="evenodd" clip-rule="evenodd" d="M34.9816 3.33937L34.9998 11.2099C34.9998 11.2099 29.71 12.2905 29.5646 8.86853C29.4192 5.44657 32.4835 5.52298 33.4937 5.84837C33.4937 4.84973 33.5274 3.30334 33.5274 3.30334L34.9816 3.33937ZM33.4824 7.02155L33.5092 10.0932L32.4815 10.1018C30.5484 10.1696 30.4345 7.04262 32.4969 7.00168C33.5186 6.98135 33.4824 7.02155 33.4824 7.02155Z" fill="#414042"/><path fill-rule="evenodd" clip-rule="evenodd" d="M23.6055 13.4792V6.13102C23.6055 6.13102 28.4834 4.52596 28.9481 7.82009C29.4772 11.5695 25.9753 11.3989 25.9753 11.3989L25.9505 10.1473C25.9505 10.1473 27.5269 10.1741 27.5204 8.62034C27.5154 7.42999 26.898 6.80018 25.1143 7.12158C25.1325 7.71592 25.0598 13.4972 25.0598 13.4972L23.6055 13.4792Z" fill="#414042"/><path fill-rule="evenodd" clip-rule="evenodd" d="M0.378085 3.23684L6.19516 0.139064C6.19516 0.139064 6.52958 -0.19227 7.05318 0.167936C7.57669 0.528142 12.7829 3.29449 12.7829 3.29449L8.47828 5.84481C8.47828 5.84481 8.1002 6.7093 9.10365 6.8246C13.1133 4.47769 13.0883 4.49041 13.0883 4.49041L13.132 11.3488L7.16946 14.9509C7.16946 14.9509 6.60229 15.3255 6.02059 14.9077C5.43889 14.4898 0 11.2479 0 11.2479L0.0071213 4.40435L5.98695 7.9315L6.00391 13.0761C6.00391 13.0761 6.59123 13.8267 7.15475 13.1062C7.16918 11.7403 7.17293 7.23485 7.17293 7.23485L0.378085 3.23684Z" fill="url(#paint0_linear_7495_352)"/><defs><linearGradient id="paint0_linear_7495_352" x1="9.37013e-07" y1="7.55263" x2="13.132" y2="7.55263" gradientUnits="userSpaceOnUse"><stop stop-color="#B20034"/><stop offset="1" stop-color="#DC0032"/></linearGradient></defs></svg>